<svg width="200" height="200" viewBox="0 0 200 200" xmlns="http://www.w3.org/2000/svg">
  <!-- QR Code Pattern Background -->
  <rect width="200" height="200" fill="white"/>
  
  <!-- Corner Squares -->
  <rect x="10" y="10" width="50" height="50" fill="black"/>
  <rect x="20" y="20" width="30" height="30" fill="white"/>
  <rect x="25" y="25" width="20" height="20" fill="black"/>
  
  <rect x="140" y="10" width="50" height="50" fill="black"/>
  <rect x="150" y="20" width="30" height="30" fill="white"/>
  <rect x="155" y="25" width="20" height="20" fill="black"/>
  
  <rect x="10" y="140" width="50" height="50" fill="black"/>
  <rect x="20" y="150" width="30" height="30" fill="white"/>
  <rect x="25" y="155" width="20" height="20" fill="black"/>
  
  <!-- Sample QR Pattern -->
  <rect x="70" y="10" width="10" height="10" fill="black"/>
  <rect x="90" y="10" width="10" height="10" fill="black"/>
  <rect x="110" y="10" width="10" height="10" fill="black"/>
  <rect x="70" y="30" width="10" height="10" fill="black"/>
  <rect x="110" y="30" width="10" height="10" fill="black"/>
  <rect x="70" y="50" width="10" height="10" fill="black"/>
  <rect x="90" y="50" width="10" height="10" fill="black"/>
  
  <!-- More pattern elements -->
  <rect x="10" y="70" width="10" height="10" fill="black"/>
  <rect x="30" y="70" width="10" height="10" fill="black"/>
  <rect x="50" y="70" width="10" height="10" fill="black"/>
  <rect x="70" y="70" width="10" height="10" fill="black"/>
  <rect x="90" y="70" width="10" height="10" fill="black"/>
  <rect x="110" y="70" width="10" height="10" fill="black"/>
  <rect x="130" y="70" width="10" height="10" fill="black"/>
  <rect x="150" y="70" width="10" height="10" fill="black"/>
  <rect x="170" y="70" width="10" height="10" fill="black"/>
  <rect x="190" y="70" width="10" height="10" fill="black"/>
  
  <!-- Center square -->
  <rect x="85" y="85" width="30" height="30" fill="black"/>
  <rect x="90" y="90" width="20" height="20" fill="white"/>
  <rect x="95" y="95" width="10" height="10" fill="black"/>
  
  <!-- Additional pattern -->
  <rect x="10" y="90" width="10" height="10" fill="black"/>
  <rect x="30" y="90" width="10" height="10" fill="black"/>
  <rect x="50" y="90" width="10" height="10" fill="black"/>
  <rect x="130" y="90" width="10" height="10" fill="black"/>
  <rect x="150" y="90" width="10" height="10" fill="black"/>
  <rect x="170" y="90" width="10" height="10" fill="black"/>
  <rect x="190" y="90" width="10" height="10" fill="black"/>
  
  <rect x="10" y="110" width="10" height="10" fill="black"/>
  <rect x="30" y="110" width="10" height="10" fill="black"/>
  <rect x="50" y="110" width="10" height="10" fill="black"/>
  <rect x="130" y="110" width="10" height="10" fill="black"/>
  <rect x="150" y="110" width="10" height="10" fill="black"/>
  <rect x="170" y="110" width="10" height="10" fill="black"/>
  <rect x="190" y="110" width="10" height="10" fill="black"/>
  
  <!-- Bottom patterns -->
  <rect x="70" y="140" width="10" height="10" fill="black"/>
  <rect x="90" y="140" width="10" height="10" fill="black"/>
  <rect x="110" y="140" width="10" height="10" fill="black"/>
  <rect x="130" y="140" width="10" height="10" fill="black"/>
  <rect x="150" y="140" width="10" height="10" fill="black"/>
  <rect x="170" y="140" width="10" height="10" fill="black"/>
  <rect x="190" y="140" width="10" height="10" fill="black"/>
  
  <rect x="70" y="160" width="10" height="10" fill="black"/>
  <rect x="110" y="160" width="10" height="10" fill="black"/>
  <rect x="130" y="160" width="10" height="10" fill="black"/>
  <rect x="170" y="160" width="10" height="10" fill="black"/>
  
  <rect x="70" y="180" width="10" height="10" fill="black"/>
  <rect x="90" y="180" width="10" height="10" fill="black"/>
  <rect x="110" y="180" width="10" height="10" fill="black"/>
  <rect x="130" y="180" width="10" height="10" fill="black"/>
  <rect x="150" y="180" width="10" height="10" fill="black"/>
  <rect x="170" y="180" width="10" height="10" fill="black"/>
  <rect x="190" y="180" width="10" height="10" fill="black"/>
  
  <!-- bKash branding text -->
  <text x="100" y="215" text-anchor="middle" font-family="Arial, sans-serif" font-size="12" fill="black">bKash QR</text>
  <text x="100" y="230" text-anchor="middle" font-family="Arial, sans-serif" font-size="10" fill="gray">+8801824032222</text>
</svg>
